# xmcd
#
# Track frame offsets:
#	150
#	8297
#	21435
#	37590
#	50034
#	63547
#	88436
#	105071
#	124566
#	140040
#	159571
#	175224
#
# Disc length: 2380 seconds
#
# Revision: 1
# Processed by: cddbd v1.5.1PL0 Copyright (c) Steve Scherf et al.
# Submitted via: audiograbber 1.83.01
#
DISCID=93094a0c
DTITLE=Blues Brothers - Briefcase Full Of Blues
DYEAR=1900
DGENRE=Blues
TTITLE0=Opening: I Can't Turn You Loose
TTITLE1=Hey Bartender
TTITLE2=Messin' With The Kid
TTITLE3=(I Got Everything I Need) Almost
TTITLE4=Rubber Biscuit
TTITLE5=Shotgun Blues
TTITLE6=Groove Me
TTITLE7=I Don't Know
TTITLE8=Soul Man
TTITLE9=B Movie Boxcar Blues
TTITLE10=Flip Flop And Fly
TTITLE11=Closing: I Can't Turn You Loose
EXTD=
EXTT0=
EXTT1=
EXTT2=
EXTT3=
EXTT4=
EXTT5=
EXTT6=
EXTT7=
EXTT8=
EXTT9=
EXTT10=
EXTT11=
PLAYORDER=
